# xmcd
#
# Track frame offsets: 
#        182
#        8577
#        16277
#        39742
#        85445
#        112652
#        132085
#        160685
#
# Disc length: 2331 seconds
#
# Revision: 3
# Processed by: cddbd v1.5.2PL0 Copyright (c) Steve Scherf et al.
# Submitted via: ExactAudioCopy v0.95b4
#
DISCID=50091908
DTITLE=B. B. King - Live In Cook County Jail
DYEAR=1971
DGENRE=Blues
TTITLE0=Introduction
TTITLE1=Every Day I Have The Blues
TTITLE2=How Blue Can You Get
TTITLE3=Worry, Worry, Worry
TTITLE4=Medley 3 O'Clock Blues - Darlin' You Know I Love You
TTITLE5=Sweet Sixteen
TTITLE6=The Thrill Is Gone
TTITLE7=Please Accept My Love
EXTD=
EXTT0=
EXTT1=
EXTT2=
EXTT3=
EXTT4=
EXTT5=
EXTT6=
EXTT7=
PLAYORDER=
